<?xml version="1.0" encoding="utf-8"?>
<!-- Generator: Adobe Illustrator 22.1.0, SVG Export Plug-In . SVG Version: 6.00 Build 0)  -->
<svg version="1.1" id="Layer_1" xmlns="http://www.w3.org/2000/svg" xmlns:xlink="http://www.w3.org/1999/xlink" x="0px" y="0px"
	 viewBox="0 0 250 250" style="enable-background:new 0 0 250 250;" xml:space="preserve">
<style type="text/css">
	.st0{fill:#62C6C4;}
	.st1{fill:#FFFFFF;}
	.st2{fill:#72403E;}
	.st3{fill:#F6A61C;}
	.st4{clip-path:url(#SVGID_6_);fill:#1AAAE2;}
	.st5{clip-path:url(#SVGID_8_);fill:#1AAAE2;}
	.st6{clip-path:url(#SVGID_10_);fill:#1AAAE2;}
	.st7{clip-path:url(#SVGID_12_);fill:#1AAAE2;}
	.st8{fill:#B7B7B8;}
	.st9{fill:#2F8DC8;}
	.st10{fill:#ED96A8;}
	.st11{fill:#B11116;}
</style>
<g>
	<path class="st3" d="M235,125c0,60.7-49.2,110-110,110c-60.8,0-110-49.2-110-110S64.2,15,125,15C185.8,15,235,64.3,235,125"/>
	<path class="st1" d="M101.6,168.9h26.6c25.2,0,33.3-22.5,33.3-43.9c0-27.3-10.4-43.9-33.5-43.9h-26.4V168.9z M70,74.2
		c0-14.1,7.3-18.5,18.5-18.5H127c34.5,0,66,15,66,69.3c0,43.9-24.4,69.3-66.6,69.3H88.5c-11.2,0-18.5-4.4-18.5-18.5V74.2z"/>
</g>
</svg>
